<svg width="743" height="842" viewBox="0 0 743 842" fill="none" xmlns="http://www.w3.org/2000/svg">
<g clip-path="url(#clip0_26_4)">
<rect width="743" height="842" fill="#F5EFE7"/>
<rect x="-6" width="749" height="842" fill="#1E1E1E"/>
<path d="M219.392 191.094C220.939 191.326 222.099 191.906 222.872 192.834C223.684 193.723 224.167 194.825 224.322 196.14C224.515 197.416 224.419 198.847 224.032 200.432C223.684 202.017 223.104 203.622 222.292 205.246L210.576 233.376C210.344 233.917 209.957 234.265 209.416 234.42L204.428 235.87C203.732 236.102 203.249 235.851 202.978 235.116L194.858 214.758L187.144 233.202C186.912 233.743 186.525 234.091 185.984 234.246L180.996 235.696C180.3 235.928 179.817 235.677 179.546 234.942L164.988 198.518C164.447 197.203 163.925 196.275 163.422 195.734C162.919 195.193 162.339 194.864 161.682 194.748C160.947 194.632 160.58 194.303 160.58 193.762C160.58 193.143 160.986 192.873 161.798 192.95C162.494 193.027 163.499 193.085 164.814 193.124C166.167 193.163 167.811 193.182 169.744 193.182C171.716 193.182 173.359 193.163 174.674 193.124C175.989 193.085 176.994 193.027 177.69 192.95C178.502 192.873 178.908 193.143 178.908 193.762C178.908 194.071 178.811 194.303 178.618 194.458C178.425 194.574 178.173 194.709 177.864 194.864C177.439 195.057 177.265 195.444 177.342 196.024C177.419 196.565 177.651 197.397 178.038 198.518L187.144 224.386L192.886 209.828L188.42 198.692C187.879 197.377 187.357 196.449 186.854 195.908C186.351 195.367 185.771 195.038 185.114 194.922C184.379 194.806 184.012 194.477 184.012 193.936C184.012 193.317 184.418 193.047 185.23 193.124C185.926 193.201 186.931 193.259 188.246 193.298C189.599 193.337 191.243 193.356 193.176 193.356C195.148 193.356 196.791 193.337 198.106 193.298C199.421 193.259 200.426 193.201 201.122 193.124C201.934 193.047 202.34 193.317 202.34 193.936C202.34 194.245 202.243 194.477 202.05 194.632C201.857 194.748 201.605 194.883 201.296 195.038C200.871 195.231 200.697 195.618 200.774 196.198C200.851 196.739 201.083 197.571 201.47 198.692L210.576 224.56L217.304 207.45C217.768 206.213 217.807 205.188 217.42 204.376C217.072 203.525 216.55 202.713 215.854 201.94C215.197 201.167 214.52 200.335 213.824 199.446C213.128 198.557 212.722 197.474 212.606 196.198C212.529 195.463 212.606 194.748 212.838 194.052C213.109 193.356 213.515 192.757 214.056 192.254C214.636 191.751 215.371 191.384 216.26 191.152C217.149 190.92 218.193 190.901 219.392 191.094ZM239.245 201.186C241.333 201.147 243.15 201.379 244.697 201.882C246.282 202.385 247.635 203.061 248.757 203.912C249.878 204.724 250.787 205.652 251.483 206.696C252.217 207.74 252.778 208.803 253.165 209.886C253.551 210.93 253.783 211.955 253.861 212.96C253.977 213.927 253.977 214.758 253.861 215.454C253.745 216.15 253.339 216.498 252.643 216.498H234.721C234.991 218.161 235.417 219.746 235.997 221.254C236.577 222.723 237.35 224.019 238.317 225.14C239.283 226.261 240.463 227.151 241.855 227.808C243.247 228.465 244.89 228.794 246.785 228.794C248.254 228.794 249.859 228.562 251.599 228.098C252.256 227.905 252.739 227.963 253.049 228.272C253.358 228.659 253.319 229.123 252.933 229.664C252.585 230.128 252.082 230.708 251.425 231.404C250.767 232.1 249.917 232.777 248.873 233.434C247.829 234.053 246.572 234.594 245.103 235.058C243.672 235.522 242.029 235.754 240.173 235.754C237.814 235.754 235.61 235.367 233.561 234.594C231.511 233.782 229.733 232.68 228.225 231.288C226.717 229.857 225.499 228.156 224.571 226.184C223.643 224.212 223.082 222.047 222.889 219.688C222.695 217.175 222.966 214.816 223.701 212.612C224.435 210.369 225.518 208.417 226.949 206.754C228.418 205.053 230.197 203.719 232.285 202.752C234.373 201.747 236.693 201.225 239.245 201.186ZM238.723 213.598C239.651 213.598 240.405 213.579 240.985 213.54C241.603 213.501 242.087 213.385 242.435 213.192C242.783 212.96 243.015 212.631 243.131 212.206C243.247 211.781 243.305 211.201 243.305 210.466C243.305 209.654 243.208 208.823 243.015 207.972C242.86 207.083 242.609 206.271 242.261 205.536C241.913 204.801 241.487 204.202 240.985 203.738C240.482 203.235 239.902 202.984 239.245 202.984C238.51 202.984 237.833 203.274 237.215 203.854C236.635 204.434 236.132 205.207 235.707 206.174C235.32 207.141 235.011 208.281 234.779 209.596C234.547 210.872 234.45 212.206 234.489 213.598H238.723ZM263.465 206.29C261.764 206.058 260.314 205.381 259.115 204.26C257.917 203.139 257.356 201.457 257.433 199.214C257.472 198.247 257.665 197.339 258.013 196.488C258.4 195.637 258.903 194.903 259.521 194.284C260.14 193.627 260.875 193.124 261.725 192.776C262.576 192.389 263.504 192.196 264.509 192.196C265.476 192.196 266.385 192.409 267.235 192.834C268.125 193.221 268.898 193.781 269.555 194.516C270.251 195.212 270.773 196.063 271.121 197.068C271.508 198.073 271.701 199.175 271.701 200.374C271.701 202.075 271.392 203.603 270.773 204.956C270.155 206.271 269.381 207.431 268.453 208.436C267.564 209.441 266.597 210.292 265.553 210.988C264.509 211.684 263.523 212.264 262.595 212.728C262.17 212.921 261.783 212.999 261.435 212.96C261.126 212.921 260.875 212.825 260.681 212.67C260.488 212.515 260.391 212.322 260.391 212.09C260.391 211.819 260.527 211.587 260.797 211.394C261.725 210.698 262.402 210.041 262.827 209.422C263.253 208.803 263.523 208.262 263.639 207.798C263.794 207.334 263.833 206.967 263.755 206.696C263.678 206.425 263.581 206.29 263.465 206.29ZM311.892 232.622C312.24 232.699 312.51 232.815 312.704 232.97C312.897 233.086 312.994 233.299 312.994 233.608C312.994 234.149 312.588 234.42 311.776 234.42C311.08 234.42 310.152 234.439 308.992 234.478C307.87 234.517 306.71 234.575 305.512 234.652C304.313 234.691 303.153 234.768 302.032 234.884C300.949 234.961 300.06 235.039 299.364 235.116C298.552 235.232 298.146 234.884 298.146 234.072V231.114C297.218 232.506 296 233.627 294.492 234.478C293.022 235.329 291.166 235.754 288.924 235.754C286.526 235.754 284.419 235.271 282.602 234.304C280.784 233.337 279.276 232.003 278.078 230.302C276.879 228.562 275.99 226.513 275.41 224.154C274.868 221.795 274.656 219.205 274.772 216.382C274.888 213.598 275.429 211.181 276.396 209.132C277.362 207.044 278.638 205.381 280.224 204.144C281.809 202.868 283.646 201.998 285.734 201.534C287.822 201.07 290.045 201.051 292.404 201.476C293.718 201.708 294.84 202.114 295.768 202.694C296.696 203.274 297.488 203.97 298.146 204.782V202.056C298.146 200.935 298.049 200.084 297.856 199.504C297.701 198.885 297.295 198.479 296.638 198.286C295.903 198.093 295.536 197.745 295.536 197.242C295.536 196.662 295.884 196.314 296.58 196.198C297.121 196.121 297.836 195.985 298.726 195.792C299.654 195.599 300.659 195.347 301.742 195.038C302.863 194.729 304.042 194.361 305.28 193.936C306.517 193.472 307.735 192.95 308.934 192.37C309.359 192.177 309.688 192.157 309.92 192.312C310.19 192.467 310.326 192.757 310.326 193.182V228.852C310.326 229.973 310.403 230.843 310.558 231.462C310.751 232.042 311.196 232.429 311.892 232.622ZM293.448 230.766C295.149 230.611 296.425 229.355 297.276 226.996C298.126 224.637 298.455 220.945 298.262 215.918C298.068 212.051 297.372 209.229 296.174 207.45C295.014 205.671 293.583 204.859 291.882 205.014C291.031 205.091 290.296 205.517 289.678 206.29C289.098 207.025 288.614 208.011 288.228 209.248C287.841 210.485 287.57 211.955 287.416 213.656C287.261 215.319 287.203 217.117 287.242 219.05C287.319 222.955 287.938 225.933 289.098 227.982C290.296 229.993 291.746 230.921 293.448 230.766ZM342.615 233.202C342.963 233.279 343.234 233.395 343.427 233.55C343.621 233.666 343.717 233.879 343.717 234.188C343.717 234.807 343.311 235.077 342.499 235C341.842 234.923 340.914 234.865 339.715 234.826C338.517 234.787 336.951 234.768 335.017 234.768C333.084 234.768 331.518 234.787 330.319 234.826C329.121 234.865 328.193 234.923 327.535 235C326.723 235.077 326.317 234.807 326.317 234.188C326.317 233.879 326.414 233.666 326.607 233.55C326.801 233.395 327.071 233.279 327.419 233.202C328.077 233.009 328.483 232.622 328.637 232.042C328.831 231.423 328.927 230.553 328.927 229.432V202.056C328.927 200.935 328.831 200.084 328.637 199.504C328.483 198.885 328.077 198.479 327.419 198.286C326.685 198.093 326.317 197.745 326.317 197.242C326.317 196.662 326.665 196.314 327.361 196.198C327.903 196.121 328.618 195.985 329.507 195.792C330.435 195.599 331.441 195.347 332.523 195.038C333.645 194.729 334.824 194.361 336.061 193.936C337.299 193.472 338.517 192.95 339.715 192.37C340.141 192.177 340.469 192.157 340.701 192.312C340.972 192.467 341.107 192.757 341.107 193.182V229.432C341.107 230.553 341.185 231.423 341.339 232.042C341.533 232.622 341.958 233.009 342.615 233.202ZM362.289 201.186C364.957 201.186 367.354 201.65 369.481 202.578C371.607 203.467 373.425 204.705 374.933 206.29C376.441 207.837 377.581 209.654 378.355 211.742C379.167 213.83 379.573 216.073 379.573 218.47C379.573 220.867 379.167 223.11 378.355 225.198C377.581 227.286 376.441 229.123 374.933 230.708C373.425 232.255 371.607 233.492 369.481 234.42C367.354 235.309 364.957 235.754 362.289 235.754C359.621 235.754 357.204 235.309 355.039 234.42C352.912 233.492 351.095 232.255 349.587 230.708C348.117 229.123 346.977 227.286 346.165 225.198C345.391 223.11 345.005 220.867 345.005 218.47C345.005 216.073 345.411 213.83 346.223 211.742C347.035 209.654 348.175 207.837 349.645 206.29C351.114 204.705 352.912 203.467 355.039 202.578C357.204 201.65 359.621 201.186 362.289 201.186ZM359.041 203.564C358.113 203.796 357.436 204.395 357.011 205.362C356.585 206.329 356.334 207.547 356.257 209.016C356.218 210.447 356.315 212.071 356.547 213.888C356.779 215.667 357.088 217.542 357.475 219.514C357.861 221.486 358.325 223.361 358.867 225.14C359.408 226.919 360.007 228.446 360.665 229.722C361.361 230.998 362.115 231.984 362.927 232.68C363.777 233.337 364.667 233.569 365.595 233.376C366.523 233.144 367.18 232.545 367.567 231.578C367.992 230.611 368.224 229.413 368.263 227.982C368.34 226.513 368.263 224.889 368.031 223.11C367.837 221.293 367.547 219.398 367.161 217.426C366.774 215.454 366.31 213.579 365.769 211.8C365.227 210.021 364.609 208.494 363.913 207.218C363.255 205.942 362.501 204.975 361.651 204.318C360.839 203.622 359.969 203.371 359.041 203.564ZM405.854 200.374C407.169 200.413 408.193 200.741 408.928 201.36C409.701 201.979 410.223 202.791 410.494 203.796C410.765 204.763 410.823 205.884 410.668 207.16C410.513 208.397 410.165 209.693 409.624 211.046L400.518 234.072C400.286 234.691 399.841 235 399.184 235H391.992C391.335 235 390.89 234.691 390.658 234.072L380.972 207.508C380.508 206.271 380.083 205.401 379.696 204.898C379.348 204.357 378.807 203.97 378.072 203.738C377.724 203.622 377.453 203.506 377.26 203.39C377.067 203.235 376.97 203.003 376.97 202.694C376.97 202.114 377.376 201.863 378.188 201.94C378.961 201.979 379.986 202.037 381.262 202.114C382.577 202.153 384.278 202.172 386.366 202.172C388.261 202.172 389.788 202.153 390.948 202.114C392.147 202.075 393.075 202.017 393.732 201.94C394.544 201.863 394.95 202.114 394.95 202.694C394.95 203.003 394.853 203.235 394.66 203.39C394.505 203.506 394.273 203.641 393.964 203.796C393.539 204.028 393.345 204.453 393.384 205.072C393.461 205.652 393.655 206.464 393.964 207.508L399.648 227.866L404.926 213.018C405.274 212.09 405.293 211.317 404.984 210.698C404.713 210.041 404.327 209.441 403.824 208.9C403.36 208.359 402.857 207.779 402.316 207.16C401.813 206.541 401.485 205.787 401.33 204.898C401.253 204.357 401.291 203.815 401.446 203.274C401.601 202.733 401.871 202.249 402.258 201.824C402.683 201.36 403.186 200.993 403.766 200.722C404.385 200.451 405.081 200.335 405.854 200.374ZM428.481 201.186C430.569 201.147 432.386 201.379 433.933 201.882C435.518 202.385 436.872 203.061 437.993 203.912C439.114 204.724 440.023 205.652 440.719 206.696C441.454 207.74 442.014 208.803 442.401 209.886C442.788 210.93 443.02 211.955 443.097 212.96C443.213 213.927 443.213 214.758 443.097 215.454C442.981 216.15 442.575 216.498 441.879 216.498H423.957C424.228 218.161 424.653 219.746 425.233 221.254C425.813 222.723 426.586 224.019 427.553 225.14C428.52 226.261 429.699 227.151 431.091 227.808C432.483 228.465 434.126 228.794 436.021 228.794C437.49 228.794 439.095 228.562 440.835 228.098C441.492 227.905 441.976 227.963 442.285 228.272C442.594 228.659 442.556 229.123 442.169 229.664C441.821 230.128 441.318 230.708 440.661 231.404C440.004 232.1 439.153 232.777 438.109 233.434C437.065 234.053 435.808 234.594 434.339 235.058C432.908 235.522 431.265 235.754 429.409 235.754C427.05 235.754 424.846 235.367 422.797 234.594C420.748 233.782 418.969 232.68 417.461 231.288C415.953 229.857 414.735 228.156 413.807 226.184C412.879 224.212 412.318 222.047 412.125 219.688C411.932 217.175 412.202 214.816 412.937 212.612C413.672 210.369 414.754 208.417 416.185 206.754C417.654 205.053 419.433 203.719 421.521 202.752C423.609 201.747 425.929 201.225 428.481 201.186ZM427.959 213.598C428.887 213.598 429.641 213.579 430.221 213.54C430.84 213.501 431.323 213.385 431.671 213.192C432.019 212.96 432.251 212.631 432.367 212.206C432.483 211.781 432.541 211.201 432.541 210.466C432.541 209.654 432.444 208.823 432.251 207.972C432.096 207.083 431.845 206.271 431.497 205.536C431.149 204.801 430.724 204.202 430.221 203.738C429.718 203.235 429.138 202.984 428.481 202.984C427.746 202.984 427.07 203.274 426.451 203.854C425.871 204.434 425.368 205.207 424.943 206.174C424.556 207.141 424.247 208.281 424.015 209.596C423.783 210.872 423.686 212.206 423.725 213.598H427.959ZM475.319 231.172C475.629 231.559 475.59 232.023 475.203 232.564C474.43 233.608 473.444 234.401 472.245 234.942C471.085 235.483 469.519 235.754 467.547 235.754C464.763 235.754 462.579 235.116 460.993 233.84C459.408 232.564 458.615 230.418 458.615 227.402V204.84H457.687C457.223 204.84 456.914 204.724 456.759 204.492C456.605 204.26 456.527 203.873 456.527 203.332C456.527 202.791 456.605 202.423 456.759 202.23C456.914 202.037 457.223 201.94 457.687 201.94H457.919C458.963 201.94 460.007 201.766 461.051 201.418C462.095 201.031 463.081 200.548 464.009 199.968C464.937 199.349 465.769 198.634 466.503 197.822C467.238 197.01 467.799 196.179 468.185 195.328C468.456 194.709 468.901 194.4 469.519 194.4C469.829 194.4 470.119 194.477 470.389 194.632C470.66 194.748 470.795 195.057 470.795 195.56V201.94H473.927C474.353 201.94 474.643 202.037 474.797 202.23C474.991 202.423 475.087 202.791 475.087 203.332C475.087 204.337 474.701 204.84 473.927 204.84H470.795V227.982C470.795 228.91 470.892 229.606 471.085 230.07C471.317 230.495 471.607 230.805 471.955 230.998C472.265 231.153 472.574 231.211 472.883 231.172C473.231 231.133 473.56 231.075 473.869 230.998C474.527 230.805 475.01 230.863 475.319 231.172ZM493.525 201.186C496.193 201.186 498.59 201.65 500.717 202.578C502.844 203.467 504.661 204.705 506.169 206.29C507.677 207.837 508.818 209.654 509.591 211.742C510.403 213.83 510.809 216.073 510.809 218.47C510.809 220.867 510.403 223.11 509.591 225.198C508.818 227.286 507.677 229.123 506.169 230.708C504.661 232.255 502.844 233.492 500.717 234.42C498.59 235.309 496.193 235.754 493.525 235.754C490.857 235.754 488.44 235.309 486.275 234.42C484.148 233.492 482.331 232.255 480.823 230.708C479.354 229.123 478.213 227.286 477.401 225.198C476.628 223.11 476.241 220.867 476.241 218.47C476.241 216.073 476.647 213.83 477.459 211.742C478.271 209.654 479.412 207.837 480.881 206.29C482.35 204.705 484.148 203.467 486.275 202.578C488.44 201.65 490.857 201.186 493.525 201.186ZM490.277 203.564C489.349 203.796 488.672 204.395 488.247 205.362C487.822 206.329 487.57 207.547 487.493 209.016C487.454 210.447 487.551 212.071 487.783 213.888C488.015 215.667 488.324 217.542 488.711 219.514C489.098 221.486 489.562 223.361 490.103 225.14C490.644 226.919 491.244 228.446 491.901 229.722C492.597 230.998 493.351 231.984 494.163 232.68C495.014 233.337 495.903 233.569 496.831 233.376C497.759 233.144 498.416 232.545 498.803 231.578C499.228 230.611 499.46 229.413 499.499 227.982C499.576 226.513 499.499 224.889 499.267 223.11C499.074 221.293 498.784 219.398 498.397 217.426C498.01 215.454 497.546 213.579 497.005 211.8C496.464 210.021 495.845 208.494 495.149 207.218C494.492 205.942 493.738 204.975 492.887 204.318C492.075 203.622 491.205 203.371 490.277 203.564ZM198.628 307.202C198.976 307.279 199.247 307.395 199.44 307.55C199.633 307.666 199.73 307.879 199.73 308.188C199.73 308.807 199.324 309.077 198.512 309C197.855 308.923 196.927 308.865 195.728 308.826C194.529 308.787 192.963 308.768 191.03 308.768C189.097 308.768 187.531 308.787 186.332 308.826C185.133 308.865 184.205 308.923 183.548 309C182.736 309.077 182.33 308.807 182.33 308.188C182.33 307.879 182.427 307.666 182.62 307.55C182.813 307.395 183.084 307.279 183.432 307.202C184.089 307.009 184.495 306.622 184.65 306.042C184.843 305.423 184.94 304.553 184.94 303.432V288.874C184.94 287.869 184.882 286.902 184.766 285.974C184.65 285.007 184.418 284.157 184.07 283.422C183.761 282.687 183.316 282.107 182.736 281.682C182.156 281.218 181.421 280.986 180.532 280.986C179.643 280.986 178.889 281.199 178.27 281.624C177.651 282.049 177.149 282.629 176.762 283.364C176.375 284.06 176.085 284.872 175.892 285.8C175.737 286.728 175.66 287.675 175.66 288.642V303.432C175.66 304.553 175.737 305.423 175.892 306.042C176.085 306.622 176.511 307.009 177.168 307.202C177.516 307.279 177.787 307.395 177.98 307.55C178.173 307.666 178.27 307.879 178.27 308.188C178.27 308.807 177.864 309.077 177.052 309C176.395 308.923 175.467 308.865 174.268 308.826C173.069 308.787 171.503 308.768 169.57 308.768C167.637 308.768 166.071 308.787 164.872 308.826C163.673 308.865 162.745 308.923 162.088 309C161.276 309.077 160.87 308.807 160.87 308.188C160.87 307.879 160.967 307.666 161.16 307.55C161.353 307.395 161.624 307.279 161.972 307.202C162.629 307.009 163.035 306.622 163.19 306.042C163.383 305.423 163.48 304.553 163.48 303.432V276.056C163.48 274.935 163.383 274.084 163.19 273.504C163.035 272.885 162.629 272.479 161.972 272.286C161.237 272.093 160.87 271.745 160.87 271.242C160.87 270.662 161.218 270.314 161.914 270.198C162.455 270.121 163.171 269.985 164.06 269.792C164.988 269.599 165.993 269.347 167.076 269.038C168.197 268.729 169.377 268.361 170.614 267.936C171.851 267.472 173.069 266.95 174.268 266.37C174.693 266.177 175.022 266.157 175.254 266.312C175.525 266.467 175.66 266.757 175.66 267.182V280.522C176.085 279.826 176.588 279.169 177.168 278.55C177.748 277.893 178.425 277.313 179.198 276.81C180.01 276.307 180.919 275.921 181.924 275.65C182.968 275.341 184.128 275.186 185.404 275.186C189.541 275.186 192.519 276.346 194.336 278.666C196.192 280.986 197.12 284.389 197.12 288.874V303.432C197.12 304.553 197.197 305.423 197.352 306.042C197.545 306.622 197.971 307.009 198.628 307.202ZM217.438 275.186C219.526 275.147 221.343 275.379 222.89 275.882C224.475 276.385 225.829 277.061 226.95 277.912C228.071 278.724 228.98 279.652 229.676 280.696C230.411 281.74 230.971 282.803 231.358 283.886C231.745 284.93 231.977 285.955 232.054 286.96C232.17 287.927 232.17 288.758 232.054 289.454C231.938 290.15 231.532 290.498 230.836 290.498H212.914C213.185 292.161 213.61 293.746 214.19 295.254C214.77 296.723 215.543 298.019 216.51 299.14C217.477 300.261 218.656 301.151 220.048 301.808C221.44 302.465 223.083 302.794 224.978 302.794C226.447 302.794 228.052 302.562 229.792 302.098C230.449 301.905 230.933 301.963 231.242 302.272C231.551 302.659 231.513 303.123 231.126 303.664C230.778 304.128 230.275 304.708 229.618 305.404C228.961 306.1 228.11 306.777 227.066 307.434C226.022 308.053 224.765 308.594 223.296 309.058C221.865 309.522 220.222 309.754 218.366 309.754C216.007 309.754 213.803 309.367 211.754 308.594C209.705 307.782 207.926 306.68 206.418 305.288C204.91 303.857 203.692 302.156 202.764 300.184C201.836 298.212 201.275 296.047 201.082 293.688C200.889 291.175 201.159 288.816 201.894 286.612C202.629 284.369 203.711 282.417 205.142 280.754C206.611 279.053 208.39 277.719 210.478 276.752C212.566 275.747 214.886 275.225 217.438 275.186ZM216.916 287.598C217.844 287.598 218.598 287.579 219.178 287.54C219.797 287.501 220.28 287.385 220.628 287.192C220.976 286.96 221.208 286.631 221.324 286.206C221.44 285.781 221.498 285.201 221.498 284.466C221.498 283.654 221.401 282.823 221.208 281.972C221.053 281.083 220.802 280.271 220.454 279.536C220.106 278.801 219.681 278.202 219.178 277.738C218.675 277.235 218.095 276.984 217.438 276.984C216.703 276.984 216.027 277.274 215.408 277.854C214.828 278.434 214.325 279.207 213.9 280.174C213.513 281.141 213.204 282.281 212.972 283.596C212.74 284.872 212.643 286.206 212.682 287.598H216.916ZM266.063 306.97C266.295 307.202 266.527 307.376 266.759 307.492C267.03 307.569 267.165 307.763 267.165 308.072C267.165 308.691 266.72 309 265.831 309H264.903C264.091 309 263.144 309 262.061 309C260.978 308.961 259.896 308.787 258.813 308.478C257.769 308.169 256.783 307.666 255.855 306.97C254.966 306.235 254.27 305.153 253.767 303.722C253.342 304.766 252.762 305.675 252.027 306.448C251.331 307.183 250.538 307.801 249.649 308.304C248.76 308.807 247.832 309.174 246.865 309.406C245.898 309.638 244.951 309.754 244.023 309.754C240.891 309.754 238.455 309.039 236.715 307.608C234.975 306.139 234.066 304.205 233.989 301.808C233.912 299.797 234.26 298.096 235.033 296.704C235.806 295.312 236.812 294.152 238.049 293.224C239.286 292.296 240.659 291.542 242.167 290.962C243.714 290.382 245.202 289.879 246.633 289.454C248.064 289.029 249.359 288.661 250.519 288.352C251.679 288.004 252.51 287.598 253.013 287.134V286.322C253.013 284.814 252.994 283.48 252.955 282.32C252.955 281.16 252.858 280.193 252.665 279.42C252.51 278.608 252.24 278.009 251.853 277.622C251.466 277.197 250.925 276.984 250.229 276.984C249.185 276.984 248.45 277.255 248.025 277.796C247.6 278.299 247.31 278.956 247.155 279.768C247 280.541 246.904 281.392 246.865 282.32C246.826 283.209 246.652 284.041 246.343 284.814C246.072 285.549 245.55 286.148 244.777 286.612C244.042 287.076 242.902 287.25 241.355 287.134C240.234 287.057 239.306 286.709 238.571 286.09C237.836 285.471 237.334 284.737 237.063 283.886C236.831 282.997 236.87 282.049 237.179 281.044C237.527 280 238.204 279.053 239.209 278.202C240.253 277.351 241.664 276.636 243.443 276.056C245.26 275.476 247.522 275.186 250.229 275.186C255.217 275.186 258.929 276.191 261.365 278.202C263.801 280.213 265.019 283.325 265.019 287.54C265.058 289.86 265.096 292.025 265.135 294.036C265.135 294.887 265.135 295.737 265.135 296.588C265.135 297.4 265.135 298.173 265.135 298.908C265.174 299.643 265.193 300.3 265.193 300.88C265.193 301.421 265.193 301.827 265.193 302.098C265.193 302.485 265.193 302.929 265.193 303.432C265.193 303.896 265.212 304.36 265.251 304.824C265.328 305.249 265.425 305.655 265.541 306.042C265.657 306.429 265.831 306.738 266.063 306.97ZM249.533 302.852C250.422 302.852 251.215 302.523 251.911 301.866C252.646 301.209 253.013 300.203 253.013 298.85V290.788C252.51 291.097 251.834 291.523 250.983 292.064C250.171 292.605 249.378 293.263 248.605 294.036C247.87 294.809 247.252 295.699 246.749 296.704C246.246 297.671 246.072 298.753 246.227 299.952C246.382 300.957 246.768 301.711 247.387 302.214C248.044 302.678 248.76 302.891 249.533 302.852ZM290.638 275.186C292.262 275.186 293.596 275.495 294.64 276.114C295.722 276.733 296.515 277.506 297.018 278.434C297.559 279.323 297.83 280.29 297.83 281.334C297.83 282.378 297.598 283.364 297.134 284.292C296.708 285.181 296.051 285.916 295.162 286.496C294.272 287.076 293.19 287.347 291.914 287.308C290.986 287.269 290.27 287.095 289.768 286.786C289.265 286.477 288.878 286.109 288.608 285.684C288.337 285.22 288.124 284.737 287.97 284.234C287.854 283.693 287.718 283.209 287.564 282.784C287.409 282.32 287.177 281.953 286.868 281.682C286.558 281.373 286.114 281.218 285.534 281.218C285.108 281.218 284.76 281.411 284.49 281.798C284.219 282.185 284.006 282.668 283.852 283.248C283.736 283.789 283.658 284.408 283.62 285.104C283.581 285.761 283.562 286.38 283.562 286.96V303.432C283.562 304.669 283.755 305.578 284.142 306.158C284.528 306.738 285.186 307.105 286.114 307.26C286.887 307.376 287.274 307.685 287.274 308.188C287.274 308.807 286.868 309.077 286.056 309C285.321 308.923 284.277 308.865 282.924 308.826C281.57 308.787 279.888 308.768 277.878 308.768C275.906 308.768 274.262 308.787 272.948 308.826C271.633 308.865 270.628 308.923 269.932 309C269.12 309.077 268.714 308.807 268.714 308.188C268.714 307.879 268.81 307.666 269.004 307.55C269.197 307.395 269.468 307.279 269.816 307.202C270.512 307.009 270.937 306.622 271.092 306.042C271.285 305.423 271.382 304.553 271.382 303.432V285.626C271.382 284.505 271.285 283.654 271.092 283.074C270.937 282.455 270.512 282.049 269.816 281.856C269.081 281.663 268.714 281.315 268.714 280.812C268.714 280.232 269.062 279.884 269.758 279.768C270.879 279.575 272.484 279.188 274.572 278.608C276.698 278.028 278.98 277.139 281.416 275.94C281.841 275.708 282.15 275.689 282.344 275.882C282.576 276.037 282.73 276.327 282.808 276.752L283.33 280.986C283.91 279.401 284.76 278.047 285.882 276.926C287.042 275.766 288.627 275.186 290.638 275.186ZM324.088 263.412C326.176 263.335 327.897 263.528 329.25 263.992C330.642 264.417 331.725 264.978 332.498 265.674C333.31 266.37 333.832 267.163 334.064 268.052C334.296 268.903 334.296 269.695 334.064 270.43C333.871 271.165 333.445 271.783 332.788 272.286C332.131 272.789 331.319 273.04 330.352 273.04C329.192 273.04 328.303 272.847 327.684 272.46C327.065 272.073 326.621 271.59 326.35 271.01C326.079 270.43 325.925 269.811 325.886 269.154C325.847 268.458 325.789 267.82 325.712 267.24C325.635 266.66 325.48 266.177 325.248 265.79C325.055 265.403 324.668 265.21 324.088 265.21C323.199 265.21 322.483 265.635 321.942 266.486C321.401 267.337 321.13 268.361 321.13 269.56C321.13 270.681 321.478 271.861 322.174 273.098C322.87 274.297 324.03 275.244 325.654 275.94H328.38C328.805 275.94 329.095 276.037 329.25 276.23C329.443 276.423 329.54 276.791 329.54 277.332C329.54 278.337 329.153 278.84 328.38 278.84H325.886V303.432C325.886 304.553 325.963 305.423 326.118 306.042C326.311 306.622 326.737 307.009 327.394 307.202C327.742 307.279 328.013 307.395 328.206 307.55C328.399 307.666 328.496 307.879 328.496 308.188C328.496 308.807 328.09 309.077 327.278 309C326.621 308.923 325.693 308.865 324.494 308.826C323.295 308.787 321.729 308.768 319.796 308.768C317.863 308.768 316.297 308.787 315.098 308.826C313.899 308.865 312.971 308.923 312.314 309C311.502 309.077 311.096 308.807 311.096 308.188C311.096 307.879 311.193 307.666 311.386 307.55C311.579 307.395 311.85 307.279 312.198 307.202C312.855 307.009 313.261 306.622 313.416 306.042C313.609 305.423 313.706 304.553 313.706 303.432V278.84H312.198C311.734 278.84 311.425 278.724 311.27 278.492C311.115 278.26 311.038 277.873 311.038 277.332C311.038 276.791 311.115 276.423 311.27 276.23C311.425 276.037 311.734 275.94 312.198 275.94H313.706C313.706 274.393 313.803 272.905 313.996 271.474C314.228 270.005 314.692 268.69 315.388 267.53C316.123 266.37 317.167 265.423 318.52 264.688C319.912 263.953 321.768 263.528 324.088 263.412ZM353.565 275.186C355.189 275.186 356.523 275.495 357.567 276.114C358.65 276.733 359.443 277.506 359.945 278.434C360.487 279.323 360.757 280.29 360.757 281.334C360.757 282.378 360.525 283.364 360.061 284.292C359.636 285.181 358.979 285.916 358.089 286.496C357.2 287.076 356.117 287.347 354.841 287.308C353.913 287.269 353.198 287.095 352.695 286.786C352.193 286.477 351.806 286.109 351.535 285.684C351.265 285.22 351.052 284.737 350.897 284.234C350.781 283.693 350.646 283.209 350.491 282.784C350.337 282.32 350.105 281.953 349.795 281.682C349.486 281.373 349.041 281.218 348.461 281.218C348.036 281.218 347.688 281.411 347.417 281.798C347.147 282.185 346.934 282.668 346.779 283.248C346.663 283.789 346.586 284.408 346.547 285.104C346.509 285.761 346.489 286.38 346.489 286.96V303.432C346.489 304.669 346.683 305.578 347.069 306.158C347.456 306.738 348.113 307.105 349.041 307.26C349.815 307.376 350.201 307.685 350.201 308.188C350.201 308.807 349.795 309.077 348.983 309C348.249 308.923 347.205 308.865 345.851 308.826C344.498 308.787 342.816 308.768 340.805 308.768C338.833 308.768 337.19 308.787 335.875 308.826C334.561 308.865 333.555 308.923 332.859 309C332.047 309.077 331.641 308.807 331.641 308.188C331.641 307.879 331.738 307.666 331.931 307.55C332.125 307.395 332.395 307.279 332.743 307.202C333.439 307.009 333.865 306.622 334.019 306.042C334.213 305.423 334.309 304.553 334.309 303.432V285.626C334.309 284.505 334.213 283.654 334.019 283.074C333.865 282.455 333.439 282.049 332.743 281.856C332.009 281.663 331.641 281.315 331.641 280.812C331.641 280.232 331.989 279.884 332.685 279.768C333.807 279.575 335.411 279.188 337.499 278.608C339.626 278.028 341.907 277.139 344.343 275.94C344.769 275.708 345.078 275.689 345.271 275.882C345.503 276.037 345.658 276.327 345.735 276.752L346.257 280.986C346.837 279.401 347.688 278.047 348.809 276.926C349.969 275.766 351.555 275.186 353.565 275.186ZM378.601 275.186C381.269 275.186 383.666 275.65 385.793 276.578C387.92 277.467 389.737 278.705 391.245 280.29C392.753 281.837 393.894 283.654 394.667 285.742C395.479 287.83 395.885 290.073 395.885 292.47C395.885 294.867 395.479 297.11 394.667 299.198C393.894 301.286 392.753 303.123 391.245 304.708C389.737 306.255 387.92 307.492 385.793 308.42C383.666 309.309 381.269 309.754 378.601 309.754C375.933 309.754 373.516 309.309 371.351 308.42C369.224 307.492 367.407 306.255 365.899 304.708C364.43 303.123 363.289 301.286 362.477 299.198C361.704 297.11 361.317 294.867 361.317 292.47C361.317 290.073 361.723 287.83 362.535 285.742C363.347 283.654 364.488 281.837 365.957 280.29C367.426 278.705 369.224 277.467 371.351 276.578C373.516 275.65 375.933 275.186 378.601 275.186ZM375.353 277.564C374.425 277.796 373.748 278.395 373.323 279.362C372.898 280.329 372.646 281.547 372.569 283.016C372.53 284.447 372.627 286.071 372.859 287.888C373.091 289.667 373.4 291.542 373.787 293.514C374.174 295.486 374.638 297.361 375.179 299.14C375.72 300.919 376.32 302.446 376.977 303.722C377.673 304.998 378.427 305.984 379.239 306.68C380.09 307.337 380.979 307.569 381.907 307.376C382.835 307.144 383.492 306.545 383.879 305.578C384.304 304.611 384.536 303.413 384.575 301.982C384.652 300.513 384.575 298.889 384.343 297.11C384.15 295.293 383.86 293.398 383.473 291.426C383.086 289.454 382.622 287.579 382.081 285.8C381.54 284.021 380.921 282.494 380.225 281.218C379.568 279.942 378.814 278.975 377.963 278.318C377.151 277.622 376.281 277.371 375.353 277.564ZM456.734 307.202C457.082 307.279 457.353 307.395 457.546 307.55C457.739 307.666 457.836 307.879 457.836 308.188C457.836 308.807 457.43 309.077 456.618 309C455.961 308.923 455.033 308.865 453.834 308.826C452.635 308.787 451.069 308.768 449.136 308.768C447.203 308.768 445.637 308.787 444.438 308.826C443.239 308.865 442.311 308.923 441.654 309C440.842 309.077 440.436 308.807 440.436 308.188C440.436 307.879 440.533 307.666 440.726 307.55C440.919 307.395 441.19 307.279 441.538 307.202C442.195 307.009 442.601 306.622 442.756 306.042C442.949 305.423 443.046 304.553 443.046 303.432V288.874C443.046 287.869 442.988 286.902 442.872 285.974C442.756 285.007 442.524 284.157 442.176 283.422C441.867 282.687 441.422 282.107 440.842 281.682C440.262 281.218 439.527 280.986 438.638 280.986C437.749 280.986 436.995 281.199 436.376 281.624C435.757 282.049 435.255 282.629 434.868 283.364C434.481 284.06 434.191 284.872 433.998 285.8C433.843 286.728 433.766 287.675 433.766 288.642V288.874V303.432C433.766 304.553 433.843 305.423 433.998 306.042C434.191 306.622 434.617 307.009 435.274 307.202C435.622 307.279 435.893 307.395 436.086 307.55C436.279 307.666 436.376 307.879 436.376 308.188C436.376 308.807 435.97 309.077 435.158 309C434.501 308.923 433.573 308.865 432.374 308.826C431.175 308.787 429.609 308.768 427.676 308.768C425.743 308.768 424.177 308.787 422.978 308.826C421.779 308.865 420.851 308.923 420.194 309C419.382 309.077 418.976 308.807 418.976 308.188C418.976 307.879 419.073 307.666 419.266 307.55C419.459 307.395 419.73 307.279 420.078 307.202C420.735 307.009 421.141 306.622 421.296 306.042C421.489 305.423 421.586 304.553 421.586 303.432V288.874C421.586 287.869 421.528 286.902 421.412 285.974C421.296 285.007 421.064 284.157 420.716 283.422C420.407 282.687 419.962 282.107 419.382 281.682C418.802 281.218 418.067 280.986 417.178 280.986C416.289 280.986 415.535 281.199 414.916 281.624C414.297 282.049 413.795 282.629 413.408 283.364C413.021 284.06 412.731 284.872 412.538 285.8C412.383 286.728 412.306 287.675 412.306 288.642V303.432C412.306 304.553 412.383 305.423 412.538 306.042C412.731 306.622 413.157 307.009 413.814 307.202C414.162 307.279 414.433 307.395 414.626 307.55C414.819 307.666 414.916 307.879 414.916 308.188C414.916 308.807 414.51 309.077 413.698 309C413.041 308.923 412.113 308.865 410.914 308.826C409.715 308.787 408.149 308.768 406.216 308.768C404.283 308.768 402.717 308.787 401.518 308.826C400.319 308.865 399.391 308.923 398.734 309C397.922 309.077 397.516 308.807 397.516 308.188C397.516 307.879 397.613 307.666 397.806 307.55C397.999 307.395 398.27 307.279 398.618 307.202C399.275 307.009 399.681 306.622 399.836 306.042C400.029 305.423 400.126 304.553 400.126 303.432V285.626C400.126 284.505 400.029 283.654 399.836 283.074C399.681 282.455 399.256 282.049 398.56 281.856C397.825 281.663 397.458 281.315 397.458 280.812C397.458 280.232 397.806 279.884 398.502 279.768C399.623 279.575 401.228 279.188 403.316 278.608C405.443 278.028 407.724 277.139 410.16 275.94C410.585 275.708 410.895 275.689 411.088 275.882C411.32 276.037 411.475 276.327 411.552 276.752L412.074 280.928C412.499 280.193 413.002 279.478 413.582 278.782C414.162 278.086 414.858 277.487 415.67 276.984C416.482 276.443 417.41 276.017 418.454 275.708C419.498 275.36 420.697 275.186 422.05 275.186C424.834 275.186 427.096 275.727 428.836 276.81C430.576 277.893 431.833 279.478 432.606 281.566C433.031 280.793 433.534 280.019 434.114 279.246C434.733 278.473 435.467 277.796 436.318 277.216C437.207 276.597 438.232 276.114 439.392 275.766C440.591 275.379 441.963 275.186 443.51 275.186C447.647 275.186 450.625 276.346 452.442 278.666C454.298 280.986 455.226 284.389 455.226 288.874V303.432C455.226 304.553 455.303 305.423 455.458 306.042C455.651 306.622 456.077 307.009 456.734 307.202ZM504.329 275.94C505.141 275.863 505.547 276.114 505.547 276.694C505.547 277.274 505.257 277.603 504.677 277.68C504.174 277.719 503.691 277.912 503.227 278.26C502.801 278.569 502.395 278.975 502.009 279.478C501.622 279.942 501.274 280.503 500.965 281.16C500.655 281.779 500.385 282.417 500.153 283.074C498.451 287.366 496.905 291.291 495.513 294.848C494.894 296.356 494.275 297.883 493.657 299.43C493.077 300.938 492.535 302.349 492.033 303.664C491.53 304.94 491.085 306.061 490.699 307.028C490.312 307.956 490.041 308.613 489.887 309C489.423 310.199 488.901 311.417 488.321 312.654C487.741 313.93 487.045 315.09 486.233 316.134C485.421 317.217 484.454 318.125 483.333 318.86C482.211 319.595 480.858 320.039 479.273 320.194C476.991 320.387 475.135 320.097 473.705 319.324C472.274 318.589 471.288 317.681 470.747 316.598C470.205 315.515 470.109 314.394 470.457 313.234C470.805 312.113 471.597 311.281 472.835 310.74C473.26 310.547 473.666 310.411 474.053 310.334C474.439 310.257 474.807 310.218 475.155 310.218C475.812 310.218 476.411 310.334 476.953 310.566C477.494 310.837 477.997 311.127 478.461 311.436C478.925 311.745 479.369 312.016 479.795 312.248C480.259 312.519 480.742 312.673 481.245 312.712C482.598 312.789 483.623 312.48 484.319 311.784C485.053 311.127 485.614 310.353 486.001 309.464L473.241 281.508C472.97 280.851 472.738 280.309 472.545 279.884C472.351 279.459 472.158 279.111 471.965 278.84C471.81 278.531 471.617 278.299 471.385 278.144C471.191 277.989 470.921 277.854 470.573 277.738C470.225 277.622 469.954 277.506 469.761 277.39C469.567 277.235 469.471 277.003 469.471 276.694C469.471 276.114 469.877 275.863 470.689 275.94C471.385 276.017 472.39 276.075 473.705 276.114C475.019 276.153 476.663 276.172 478.635 276.172C480.607 276.172 482.25 276.153 483.565 276.114C484.879 276.075 485.885 276.017 486.581 275.94C487.393 275.863 487.799 276.114 487.799 276.694C487.799 277.197 487.431 277.545 486.697 277.738C486.039 277.931 485.691 278.318 485.653 278.898C485.614 279.478 485.827 280.348 486.291 281.508L491.453 295.66L496.499 283.074C496.769 282.455 496.963 281.837 497.079 281.218C497.233 280.599 497.272 280.058 497.195 279.594C497.156 279.091 496.982 278.666 496.673 278.318C496.363 277.97 495.88 277.777 495.223 277.738C494.449 277.661 494.063 277.332 494.063 276.752C494.063 276.211 494.469 275.94 495.281 275.94C495.938 276.017 496.731 276.075 497.659 276.114C498.625 276.153 499.437 276.172 500.095 276.172C500.984 276.172 501.777 276.153 502.473 276.114C503.169 276.037 503.787 275.979 504.329 275.94ZM520.033 275.186C522.701 275.186 525.098 275.65 527.225 276.578C529.351 277.467 531.169 278.705 532.677 280.29C534.185 281.837 535.325 283.654 536.099 285.742C536.911 287.83 537.317 290.073 537.317 292.47C537.317 294.867 536.911 297.11 536.099 299.198C535.325 301.286 534.185 303.123 532.677 304.708C531.169 306.255 529.351 307.492 527.225 308.42C525.098 309.309 522.701 309.754 520.033 309.754C517.365 309.754 514.948 309.309 512.783 308.42C510.656 307.492 508.839 306.255 507.331 304.708C505.861 303.123 504.721 301.286 503.909 299.198C503.135 297.11 502.749 294.867 502.749 292.47C502.749 290.073 503.155 287.83 503.967 285.742C504.779 283.654 505.919 281.837 507.389 280.29C508.858 278.705 510.656 277.467 512.783 276.578C514.948 275.65 517.365 275.186 520.033 275.186ZM516.785 277.564C515.857 277.796 515.18 278.395 514.755 279.362C514.329 280.329 514.078 281.547 514.001 283.016C513.962 284.447 514.059 286.071 514.291 287.888C514.523 289.667 514.832 291.542 515.219 293.514C515.605 295.486 516.069 297.361 516.611 299.14C517.152 300.919 517.751 302.446 518.409 303.722C519.105 304.998 519.859 305.984 520.671 306.68C521.521 307.337 522.411 307.569 523.339 307.376C524.267 307.144 524.924 306.545 525.311 305.578C525.736 304.611 525.968 303.413 526.007 301.982C526.084 300.513 526.007 298.889 525.775 297.11C525.581 295.293 525.291 293.398 524.905 291.426C524.518 289.454 524.054 287.579 523.513 285.8C522.971 284.021 522.353 282.494 521.657 281.218C520.999 279.942 520.245 278.975 519.395 278.318C518.583 277.622 517.713 277.371 516.785 277.564ZM575.46 307.202C575.654 307.318 575.828 307.434 575.982 307.55C576.176 307.666 576.272 307.84 576.272 308.072C576.272 308.691 575.828 309 574.938 309H574.184C573.372 309 572.425 308.981 571.342 308.942C570.26 308.903 569.196 308.729 568.152 308.42C567.108 308.111 566.122 307.589 565.194 306.854C564.305 306.081 563.59 304.998 563.048 303.606C562.7 304.379 562.256 305.153 561.714 305.926C561.173 306.661 560.496 307.318 559.684 307.898C558.872 308.478 557.925 308.942 556.842 309.29C555.76 309.638 554.503 309.812 553.072 309.812C548.935 309.812 545.938 308.691 544.082 306.448C542.265 304.167 541.356 300.783 541.356 296.298V282.784C541.356 281.663 541.26 280.812 541.066 280.232C540.912 279.652 540.506 279.265 539.848 279.072C539.114 278.879 538.746 278.531 538.746 278.028C538.746 277.409 539.133 277.1 539.906 277.1C540.95 277.1 542.555 277.061 544.72 276.984C546.924 276.868 549.438 276.597 552.26 276.172C552.686 276.095 552.995 276.153 553.188 276.346C553.42 276.539 553.536 276.829 553.536 277.216V296.298C553.536 297.303 553.594 298.289 553.71 299.256C553.826 300.184 554.039 301.015 554.348 301.75C554.696 302.485 555.16 303.084 555.74 303.548C556.32 303.973 557.074 304.186 558.002 304.186C558.93 304.186 559.684 303.935 560.264 303.432C560.844 302.929 561.27 302.291 561.54 301.518C561.85 300.706 562.043 299.797 562.12 298.792C562.236 297.787 562.294 296.762 562.294 295.718V282.784C562.294 281.663 562.198 280.812 562.004 280.232C561.85 279.652 561.424 279.265 560.728 279.072C559.994 278.879 559.626 278.531 559.626 278.028C559.626 277.409 560.013 277.1 560.786 277.1C561.83 277.1 563.435 277.061 565.6 276.984C567.804 276.868 570.337 276.597 573.198 276.172C573.624 276.095 573.933 276.153 574.126 276.346C574.358 276.539 574.474 276.829 574.474 277.216V302.098C574.474 302.562 574.474 303.065 574.474 303.606C574.474 304.109 574.494 304.611 574.532 305.114C574.61 305.578 574.706 306.003 574.822 306.39C574.977 306.777 575.19 307.047 575.46 307.202Z" fill="white"/>
<path d="M291.5 541C291.5 632.954 216.733 707.5 124.5 707.5C32.267 707.5 -42.5 632.954 -42.5 541C-42.5 449.046 32.267 374.5 124.5 374.5C216.733 374.5 291.5 449.046 291.5 541Z" stroke="#F5EFE7"/>
<circle cx="369" cy="541" r="166.5" stroke="#F5EFE7" stroke-dasharray="15 15"/>
<path d="M779.5 541C779.5 632.953 704.511 707.5 612 707.5C519.489 707.5 444.5 632.953 444.5 541C444.5 449.047 519.489 374.5 612 374.5C704.511 374.5 779.5 449.047 779.5 541Z" stroke="#F5EFE7"/>
</g>
<defs>
<clipPath id="clip0_26_4">
<rect width="743" height="842" fill="white"/>
</clipPath>
</defs>
</svg>
