<svg width="407" height="123" viewBox="0 0 407 123" fill="none" xmlns="http://www.w3.org/2000/svg">
<path d="M65.3 1.052C71.748 1.052 77.416 2.352 82.304 4.952C87.192 7.55199 91.248 11.192 94.472 15.872C97.696 20.448 100.036 25.908 101.492 32.252C103.052 38.596 103.676 45.564 103.364 53.156C103.052 59.812 101.856 65.688 99.776 70.784C97.696 75.88 94.94 80.144 91.508 83.576C88.076 87.008 84.072 89.608 79.496 91.376C74.92 93.144 69.98 94.028 64.676 94.028C59.996 94.028 55.524 93.352 51.26 92C47.1 90.752 43.512 88.204 40.496 84.356V106.196C40.496 109.524 41.016 111.968 42.056 113.528C43.096 115.088 44.864 116.076 47.36 116.492C49.44 116.804 50.48 117.636 50.48 118.988C50.48 120.652 49.388 121.38 47.204 121.172C45.228 120.964 42.42 120.808 38.78 120.704C35.14 120.6 30.616 120.548 25.208 120.548C19.904 120.548 15.484 120.6 11.948 120.704C8.412 120.808 5.708 120.964 3.836 121.172C1.652 121.38 0.56 120.652 0.56 118.988C0.56 118.156 0.82 117.532 1.34 117.116C1.86 116.804 2.588 116.544 3.524 116.336C5.396 115.816 6.54 114.724 6.956 113.06C7.476 111.5 7.736 109.212 7.736 106.196V24.452C7.736 21.436 7.476 19.148 6.956 17.588C6.54 15.924 5.396 14.832 3.524 14.312C1.548 13.792 0.56 12.856 0.56 11.504C0.56 9.73599 1.496 8.79999 3.368 8.69599C4.824 8.488 6.696 8.28 8.984 8.07199C11.272 7.864 13.82 7.552 16.628 7.136C19.436 6.616 22.4 6.044 25.52 5.42C28.744 4.79599 31.968 4.01599 35.192 3.07999C37.584 2.45599 38.832 3.18399 38.936 5.26399L39.872 14.468C42.368 10.516 45.644 7.292 49.7 4.796C53.86 2.3 59.06 1.052 65.3 1.052ZM57.344 83.732C59.632 83.524 61.608 82.432 63.272 80.456C64.936 78.376 66.236 75.672 67.172 72.344C68.212 69.016 68.94 65.116 69.356 60.644C69.772 56.068 69.928 51.18 69.824 45.98C69.616 35.476 67.9 27.52 64.676 22.112C61.556 16.6 57.708 14.052 53.132 14.468C48.556 14.884 45.124 18.264 42.836 24.608C40.548 30.952 39.664 40.884 40.184 54.404C40.704 64.804 42.524 72.396 45.644 77.18C48.868 81.964 52.768 84.148 57.344 83.732ZM203.784 87.164C204.72 87.372 205.448 87.684 205.968 88.1C206.488 88.412 206.748 88.984 206.748 89.816C206.748 91.48 205.656 92.208 203.472 92C202.536 91.896 201.08 91.844 199.104 91.844C197.128 91.74 194.944 91.688 192.552 91.688C190.16 91.584 187.716 91.532 185.22 91.532C182.828 91.428 180.644 91.376 178.668 91.376C176.692 91.376 174.56 91.428 172.272 91.532C169.984 91.532 167.748 91.584 165.564 91.688C163.38 91.688 161.352 91.74 159.48 91.844C157.712 91.844 156.36 91.896 155.424 92C153.24 92.208 152.148 91.48 152.148 89.816C152.148 88.984 152.408 88.412 152.928 88.1C153.448 87.684 154.176 87.372 155.112 87.164C156.88 86.644 157.816 85.396 157.92 83.42C158.128 81.34 157.452 79.208 155.892 77.024L143.88 60.488L139.356 67.352C137.38 70.368 136.028 73.02 135.3 75.308C134.676 77.492 134.52 79.416 134.832 81.08C135.144 82.64 135.82 83.94 136.86 84.98C137.9 85.916 139.148 86.644 140.604 87.164C141.54 87.476 142.268 87.788 142.788 88.1C143.412 88.412 143.776 88.984 143.88 89.816C144.088 91.48 143.048 92.208 140.76 92C139.928 92 138.68 92 137.016 92C135.456 91.896 133.688 91.844 131.712 91.844C129.84 91.74 127.916 91.688 125.94 91.688C123.964 91.584 122.196 91.532 120.636 91.532C119.492 91.532 118.088 91.584 116.424 91.688C114.864 91.688 113.252 91.74 111.588 91.844C109.924 91.844 108.364 91.896 106.908 92C105.556 92 104.516 92 103.788 92C101.708 92.104 100.564 91.376 100.356 89.816C100.252 88.256 101.136 87.32 103.008 87.008C105.088 86.592 107.064 85.968 108.936 85.136C110.912 84.2 112.888 82.952 114.864 81.392C116.84 79.832 118.868 77.908 120.948 75.62C123.028 73.332 125.212 70.576 127.5 67.352L138.108 52.376L113.304 18.056C110.808 14.624 108.572 12.18 106.596 10.724C104.62 9.268 102.852 8.332 101.292 7.91599C100.356 7.708 99.6281 7.448 99.1081 7.136C98.5881 6.71999 98.3281 6.09599 98.3281 5.26399C98.3281 3.59999 99.4201 2.87199 101.604 3.07999C102.54 3.184 103.996 3.288 105.972 3.392C107.948 3.392 110.132 3.444 112.524 3.548C114.916 3.548 117.308 3.59999 119.7 3.70399C122.196 3.70399 124.432 3.70399 126.408 3.70399C128.384 3.70399 130.516 3.70399 132.804 3.70399C135.092 3.59999 137.328 3.548 139.512 3.548C141.696 3.444 143.672 3.392 145.44 3.392C147.312 3.288 148.716 3.184 149.652 3.07999C151.836 2.87199 152.928 3.59999 152.928 5.26399C152.928 6.09599 152.668 6.71999 152.148 7.136C151.628 7.448 150.9 7.708 149.964 7.91599C148.196 8.43599 147.208 9.736 147 11.816C146.896 13.792 147.624 15.872 149.184 18.056L161.352 35.06L166.188 27.728C168.164 24.712 169.464 22.112 170.088 19.928C170.816 17.64 171.024 15.716 170.712 14.156C170.4 12.492 169.724 11.14 168.684 10.1C167.644 9.06 166.396 8.332 164.94 7.91599C164.004 7.60399 163.224 7.29199 162.6 6.98C162.08 6.668 161.768 6.09599 161.664 5.26399C161.456 3.59999 162.496 2.87199 164.784 3.07999C165.616 3.07999 166.812 3.13199 168.372 3.236C170.036 3.236 171.804 3.288 173.676 3.392C175.652 3.392 177.628 3.444 179.604 3.548C181.58 3.548 183.348 3.548 184.908 3.548C186.052 3.548 187.404 3.548 188.964 3.548C190.628 3.444 192.292 3.392 193.956 3.392C195.62 3.288 197.128 3.236 198.48 3.236C199.936 3.13199 201.028 3.07999 201.756 3.07999C203.836 2.97599 204.98 3.70399 205.188 5.26399C205.292 6.824 204.408 7.76 202.536 8.07199C198.48 8.8 194.528 10.672 190.68 13.688C186.832 16.6 182.62 21.28 178.044 27.728L167.124 43.016L191.772 77.024C194.268 80.456 196.504 82.9 198.48 84.356C200.456 85.812 202.224 86.748 203.784 87.164ZM246.763 5.88799C243.643 6.096 241.043 7.656 238.963 10.568C236.883 13.48 235.323 17.172 234.283 21.644C233.347 26.012 232.931 30.848 233.035 36.152C233.243 41.352 234.127 46.448 235.687 51.44C237.975 58.824 241.927 64.596 247.543 68.756C253.159 72.916 259.711 74.996 267.199 74.996C270.839 74.996 274.531 74.476 278.275 73.436C280.043 72.916 281.343 73.072 282.175 73.904C283.007 74.944 282.903 76.192 281.863 77.648C280.927 78.896 279.575 80.456 277.807 82.328C276.039 84.2 273.751 86.02 270.943 87.788C268.135 89.452 264.755 90.908 260.803 92.156C256.955 93.404 252.535 94.028 247.543 94.028C241.199 94.028 235.271 92.936 229.759 90.752C224.247 88.464 219.463 85.344 215.407 81.392C211.351 77.336 208.075 72.604 205.579 67.196C203.083 61.684 201.575 55.704 201.055 49.256C200.639 43.328 201.315 37.556 203.083 31.94C204.955 26.22 207.867 21.124 211.819 16.652C215.771 12.076 220.659 8.384 226.483 5.576C232.411 2.768 239.119 1.26 246.607 1.052C253.679 0.843996 259.555 1.572 264.235 3.236C269.019 4.9 272.815 7.032 275.623 9.632C278.535 12.128 280.511 14.936 281.551 18.056C282.695 21.072 283.059 23.932 282.643 26.636C282.227 29.34 281.135 31.628 279.367 33.5C277.703 35.372 275.519 36.412 272.815 36.62C268.655 36.828 265.535 36.204 263.455 34.748C261.479 33.292 260.023 31.42 259.087 29.132C258.255 26.74 257.735 24.14 257.527 21.332C257.319 18.524 256.903 15.976 256.279 13.688C255.759 11.296 254.823 9.37199 253.471 7.91599C252.119 6.356 249.883 5.68 246.763 5.88799ZM375.165 3.07999C377.349 2.87199 378.441 3.548 378.441 5.10799C378.441 6.66799 377.661 7.55199 376.101 7.76C374.749 7.864 373.449 8.38399 372.201 9.32C371.057 10.152 369.965 11.244 368.925 12.596C367.885 13.844 366.949 15.352 366.117 17.12C365.285 18.784 364.557 20.5 363.933 22.268C359.357 33.812 355.197 44.368 351.453 53.936C349.789 57.992 348.125 62.1 346.461 66.26C344.901 70.316 343.445 74.112 342.093 77.648C340.741 81.08 339.545 84.096 338.505 86.696C337.465 89.192 336.737 90.96 336.321 92C335.073 95.224 333.669 98.5 332.109 101.828C330.549 105.26 328.677 108.38 326.493 111.188C324.309 114.1 321.709 116.544 318.693 118.52C315.677 120.496 312.037 121.692 307.773 122.108C301.637 122.628 296.645 121.848 292.797 119.768C288.949 117.792 286.297 115.348 284.841 112.436C283.385 109.524 283.125 106.508 284.061 103.388C284.997 100.372 287.129 98.136 290.457 96.68C291.601 96.16 292.693 95.796 293.733 95.588C294.773 95.38 295.761 95.276 296.697 95.276C298.465 95.276 300.077 95.588 301.533 96.212C302.989 96.94 304.341 97.72 305.589 98.552C306.837 99.384 308.033 100.112 309.177 100.736C310.425 101.464 311.725 101.88 313.077 101.984C316.717 102.192 319.473 101.36 321.345 99.488C323.321 97.72 324.829 95.64 325.869 93.248L291.549 18.056C290.821 16.288 290.197 14.832 289.677 13.688C289.157 12.544 288.637 11.608 288.117 10.88C287.701 10.048 287.181 9.424 286.557 9.008C286.037 8.592 285.309 8.228 284.373 7.91599C283.437 7.60399 282.709 7.29199 282.189 6.98C281.669 6.564 281.409 5.94 281.409 5.10799C281.409 3.548 282.501 2.87199 284.685 3.07999C286.557 3.288 289.261 3.444 292.797 3.548C296.333 3.65199 300.753 3.70399 306.057 3.70399C311.361 3.70399 315.781 3.65199 319.317 3.548C322.853 3.444 325.557 3.288 327.429 3.07999C329.613 2.87199 330.705 3.548 330.705 5.10799C330.705 6.45999 329.717 7.396 327.741 7.91599C325.973 8.43599 325.037 9.47599 324.933 11.036C324.829 12.596 325.401 14.936 326.649 18.056L340.533 56.12L354.105 22.268C354.833 20.604 355.353 18.94 355.665 17.276C356.081 15.612 356.185 14.156 355.977 12.908C355.873 11.556 355.405 10.412 354.573 9.47599C353.741 8.53999 352.441 8.01999 350.673 7.91599C348.593 7.708 347.553 6.824 347.553 5.26399C347.553 3.80799 348.645 3.07999 350.829 3.07999C352.597 3.288 354.729 3.444 357.225 3.548C359.825 3.65199 362.009 3.70399 363.777 3.70399C366.169 3.70399 368.301 3.65199 370.173 3.548C372.045 3.34 373.709 3.184 375.165 3.07999ZM387.267 94.028C384.667 94.028 382.223 93.508 379.935 92.468C377.647 91.532 375.619 90.232 373.851 88.568C372.187 86.8 370.835 84.772 369.795 82.484C368.859 80.196 368.391 77.752 368.391 75.152C368.391 72.552 368.859 70.108 369.795 67.82C370.835 65.428 372.187 63.4 373.851 61.736C375.619 59.968 377.647 58.616 379.935 57.68C382.223 56.64 384.667 56.12 387.267 56.12C389.867 56.12 392.311 56.64 394.599 57.68C396.991 58.616 399.019 59.968 400.683 61.736C402.451 63.4 403.803 65.428 404.739 67.82C405.779 70.108 406.299 72.552 406.299 75.152C406.299 77.752 405.779 80.196 404.739 82.484C403.803 84.772 402.451 86.8 400.683 88.568C399.019 90.232 396.991 91.532 394.599 92.468C392.311 93.508 389.867 94.028 387.267 94.028Z" fill="#F5EFE7"/>
</svg>
